<svg width="569" height="184" viewBox="0 0 569 184" fill="none" xmlns="http://www.w3.org/2000/svg">
  <path
    d="M532.81 2.47719C530.43 4.35898 526.697 9.33355 522.392 16.3682L522.446 16.7569L528.144 24.5159L528.393 24.6464C531.068 19.4225 533.839 14.6475 536.764 10.5113C536.983 10.1839 537.094 10.0363 537.094 10.0363C536.983 10.1839 536.875 10.3638 536.764 10.5113C535.834 11.8948 533.005 16.2488 529.031 24.7229L529.632 24.7715C529.632 24.7715 541.291 21.965 546.857 20.2023L547.14 19.8658C547.542 9.44455 543.3 5.27972 543.3 5.27972C543.3 5.27972 537.75 -1.4105 532.81 2.47719Z"
    fill="url(#paint0_linear_136_592)" />
  <path
    d="M517.615 49.7449C518.7 46.8545 519.789 43.9965 520.891 41.2357C522.045 38.3687 523.24 35.5619 524.48 32.8479C524.56 32.7048 524.634 32.5294 524.677 32.3585C525.89 29.6813 527.121 27.1337 528.393 24.6463L522.387 16.3358C522.089 16.8063 521.796 17.3092 521.502 17.812C520.38 19.7173 519.207 21.7288 518.019 23.8743C516.673 26.3058 515.313 28.8715 513.938 31.5711C512.665 34.0585 511.379 36.6798 510.129 39.3291C509.061 41.6231 507.965 43.9539 506.915 46.3774C506.863 46.4836 506.84 46.5528 506.789 46.659L506.838 47.0152L514.397 57.9492L514.669 58.0104C515.637 55.2352 516.606 52.4599 517.615 49.7449Z"
    fill="url(#paint1_linear_136_592)" />
  <path
    d="M499.79 110.879C500.473 107.946 501.215 104.971 501.953 101.963C502.677 99.0899 503.396 96.1842 504.18 93.2695C504.931 90.3592 505.747 87.44 506.559 84.4884C507.399 81.4999 508.239 78.5114 509.115 75.5508C509.996 72.6226 510.877 69.6944 511.795 66.7941C512.114 65.7596 512.46 64.6881 512.811 63.6491C513.387 61.8526 513.995 60.0516 514.576 58.2875C514.595 58.1858 514.65 58.1121 514.669 58.0104L506.789 46.6589C506.714 46.8344 506.639 47.0098 506.565 47.1852C505.468 49.7472 504.343 52.3462 503.292 55.0009C502.213 57.6924 501.171 60.4119 500.166 63.1593C499.301 65.4911 498.501 67.8138 497.706 70.169C497.542 70.6539 497.406 71.1019 497.242 71.5867C496.268 74.5608 495.439 77.3829 494.697 80.1267C493.871 83.2123 493.156 86.1505 492.553 88.941C492.148 90.7798 491.827 92.508 491.501 94.2038C491.269 95.6225 491.041 97.0736 490.841 98.4878C490.351 101.857 490.019 105.171 489.821 108.5L489.972 108.875L497.535 119.841L497.743 119.911C498.247 117.597 498.783 115.277 499.343 112.889C499.48 112.21 499.654 111.558 499.79 110.879Z"
    fill="url(#paint2_linear_136_592)" />
  <path
    d="M489.815 108.93C489.581 112.956 489.574 116.952 489.822 120.879C489.84 121.008 489.826 121.142 489.848 121.304C487.474 118.465 481.874 116.172 481.874 116.172C486.344 121.031 489.904 125.984 491.053 131.172C489.136 131.868 486.33 131.63 482.998 130.937C486.688 133.495 489.266 133.995 490.269 134.087C487.284 134.699 484.43 137.208 481.584 140.013C485.955 137.492 489.576 136.23 492.345 136.44C489.77 149.044 487.37 162.912 485.046 177.561C486.287 176.993 486.943 176.01 487.23 174.749C487.62 172.087 490.353 154.674 495.171 131.591C495.313 130.944 495.449 130.265 495.591 129.618C495.633 129.447 495.671 129.244 495.713 129.073C496.236 126.657 496.75 124.176 497.324 121.653C497.442 121.075 497.592 120.493 497.71 119.916L497.706 119.883L489.821 108.5C489.843 108.662 489.829 108.796 489.815 108.93Z"
    fill="url(#paint3_linear_136_592)" />
  <path
    d="M529.035 24.7553C527.939 27.0861 526.754 29.7264 525.484 32.7086C525.405 32.8516 525.363 33.0225 525.283 33.1656C524.191 35.76 523.061 38.5577 521.874 41.6604C520.855 44.3106 519.799 47.1641 518.709 50.2534C517.759 52.927 516.796 55.7346 515.826 58.7411L516.136 58.8302L530.971 55.1207L531.292 54.8122C535.566 52.0733 537.341 49.8792 538.935 46.8521C539.35 46.0353 539.788 45.1492 540.194 44.2676C541.462 41.5167 542.667 38.5435 543.678 35.5973C544.67 32.7528 545.499 29.9308 546.11 27.4361C546.482 25.833 546.775 24.373 546.928 23.0973C547.066 21.9557 547.149 20.8878 547.176 19.8937C541.236 21.8075 533.894 23.8499 529.035 24.7553Z"
    fill="url(#paint4_linear_136_592)" />
  <path
    d="M515.419 60.085C515.053 61.2581 514.66 62.4681 514.267 63.678C513.855 64.9897 513.419 66.3705 513.016 67.7469C512.814 68.4351 512.585 69.1602 512.383 69.8484C511.723 71.9868 511.104 74.1854 510.429 76.4578C509.627 79.243 508.811 82.1622 508.003 85.1462C507.215 88.0285 506.436 90.9756 505.674 94.0523C504.923 96.9625 504.185 99.9699 503.456 103.042C502.783 105.809 502.115 108.609 501.466 111.538C501.419 111.677 501.404 111.811 501.358 111.949C500.703 114.846 500.081 117.787 499.412 120.817C499.389 120.887 499.355 121.063 499.331 121.133L499.562 121.151L503.999 120.041L504.239 119.901C504.137 119.882 504.059 119.761 503.958 119.742C509.814 118.17 517.128 112.599 521.514 106.379C523.527 103.525 525.247 100.216 526.769 96.4394C527.895 93.6093 528.855 90.538 529.738 87.1474C530.518 84.2003 531.196 81.0031 531.811 77.5836C530.55 78.4849 529.039 79.2558 527.372 79.8502C527.089 79.9555 526.775 80.0652 526.46 80.1749C526.145 80.2846 525.825 80.362 525.543 80.4672C530.817 77.5565 533.739 72.9255 535.597 67.518C534.279 68.7243 532.062 70.3524 529.302 71.3957C528.927 71.5468 528.547 71.6655 528.135 71.7887C528.038 71.8022 527.945 71.8481 527.848 71.8616C529.679 70.7822 531.172 69.6506 532.449 68.3841C532.709 68.1169 532.969 67.8497 533.224 67.5502C533.592 67.1031 533.959 66.656 534.293 66.2135C534.516 65.9184 534.707 65.6278 534.926 65.3004C535.387 64.5762 535.806 63.7918 536.184 62.9471C536.314 62.6979 536.408 62.4208 536.538 62.1716C536.683 61.7884 536.796 61.4097 536.908 61.0309C537.47 59.3685 537.892 57.8904 538.207 56.5923C538.381 55.941 538.498 55.3634 538.616 54.7859C538.654 54.5826 538.687 54.3469 538.758 54.1391C538.871 53.5291 538.961 52.9885 539.023 52.4847C539.123 51.7776 539.144 51.2135 539.155 50.8159C538.983 51.0048 538.807 51.1613 538.57 51.3592C537.025 52.5969 534.269 53.9038 531.995 54.6485C531.68 54.7582 531.458 54.822 531.208 54.9228C531.226 54.8982 526.108 56.1682 515.854 58.733C515.798 58.8067 515.527 59.6739 515.419 60.085Z"
    fill="url(#paint5_linear_136_592)" />
  <path
    d="M499.014 122.409C498.514 124.756 497.991 127.172 497.505 129.617C497.51 129.649 497.482 129.686 497.486 129.718C497.402 130.06 497.349 130.397 497.269 130.772C496.939 132.435 496.646 133.895 495.995 137.287C497.925 137.877 499.684 139.845 501.423 142.145C500.938 139.605 499.532 137.324 497.235 135.761C506.261 134.905 513.686 131.563 516.762 124.468C517.038 123.836 517.276 123.175 517.478 122.487C515.983 125.038 513.851 126.325 509.609 126.682C515.473 123.03 518.209 119.91 520.379 115.086C520.878 113.928 521.369 112.704 521.841 111.351C517.145 117.714 511.05 120.177 504.244 119.9L499.333 121.143C499.221 121.522 499.117 121.965 499.014 122.409Z"
    fill="url(#paint6_linear_136_592)" />
  <path
    d="M536.764 10.5112C533.839 14.6474 531.068 19.4224 528.393 24.6463C527.121 27.1336 525.89 29.6812 524.677 32.3584C524.635 32.5293 524.56 32.7047 524.481 32.8478C523.24 35.5618 522.045 38.3686 520.891 41.2356C519.789 43.9964 518.7 46.8544 517.616 49.7448C516.606 52.4598 515.638 55.2351 514.67 58.0104C514.651 58.112 514.595 58.1858 514.576 58.2874C513.995 60.0515 513.387 61.8525 512.811 63.649C512.46 64.6881 512.114 65.7595 511.795 66.794C510.877 69.6944 509.996 72.6226 509.115 75.5508C508.239 78.5114 507.399 81.4999 506.559 84.4883C505.748 87.4399 504.931 90.3592 504.18 93.2694C503.396 96.1841 502.677 99.0899 501.953 101.963C501.215 104.971 500.473 107.946 499.79 110.879C499.654 111.558 499.48 112.21 499.343 112.889C498.783 115.277 498.247 117.597 497.743 119.911L497.708 119.9L497.71 119.916C497.592 120.493 497.442 121.075 497.324 121.653C496.75 124.175 496.236 126.657 495.713 129.073C495.671 129.244 495.633 129.447 495.591 129.618C495.449 130.265 495.313 130.944 495.171 131.591C490.353 154.674 487.62 172.087 487.23 174.749C487.078 175.418 486.822 176.008 486.43 176.5C488.375 174.9 493.617 149.691 495.995 137.287C496.584 134.219 496.88 132.731 497.175 131.244L497.269 130.772C497.349 130.397 497.402 130.06 497.486 129.718C497.482 129.686 497.51 129.649 497.505 129.617C497.991 127.172 498.514 124.756 499.014 122.409C499.117 121.965 499.221 121.522 499.333 121.143L499.365 121.135L499.332 121.133C499.355 121.063 499.389 120.887 499.413 120.817C500.082 117.787 500.704 114.846 501.358 111.949C501.405 111.811 501.419 111.676 501.466 111.538C502.116 108.609 502.784 105.809 503.456 103.042C504.185 99.9699 504.923 96.9625 505.675 94.0522C506.436 90.9756 507.215 88.0285 508.004 85.1461C508.811 82.1621 509.627 79.2429 510.429 76.4577C511.104 74.1853 511.723 71.9867 512.384 69.8484C512.585 69.1602 512.815 68.4351 513.016 67.7469C513.4 66.439 513.812 65.127 514.206 63.8743L514.267 63.678C514.661 62.468 515.054 61.2581 515.419 60.085C515.523 59.6913 515.776 58.8797 515.846 58.7465L515.827 58.741C516.796 55.7346 517.76 52.9269 518.709 50.2533C519.799 47.1641 520.856 44.3106 521.874 41.6603C523.061 38.5576 524.191 35.7599 525.284 33.1655C525.363 33.0224 525.405 32.8515 525.484 32.7085C526.754 29.7263 527.939 27.086 529.035 24.7552C529.075 24.7478 529.115 24.7404 529.155 24.7328L529.031 24.7228C533.005 16.2487 535.834 11.8948 536.764 10.5112Z"
    fill="url(#paint7_linear_136_592)" />
  <path
    d="M105.64 62.704L73.6076 142H53.8956L48.7436 90.48L28.8076 142H9.76762L0.807617 62.704H21.4156L25.4476 116.24L45.1596 62.704H62.4076L67.3356 116.24L85.9276 62.704H105.64Z"
    fill="#1D4CC4" />
  <path
    d="M154.649 95.632C155.695 88.016 155.471 82.7893 153.977 79.952C152.484 77.1147 150.319 75.696 147.481 75.696C144.793 75.696 142.031 77.1893 139.193 80.176C136.505 83.0133 134.639 88.1653 133.593 95.632H154.649ZM144.793 128.112C151.364 128.112 157.935 126.245 164.505 122.512L166.745 136.4C163.161 139.088 157.188 141.253 148.825 142.896C145.689 143.643 142.105 144.016 138.073 144.016C134.041 144.016 130.084 143.269 126.201 141.776C122.468 140.283 119.407 137.968 117.017 134.832C111.492 127.664 109.7 117.584 111.641 104.592C113.583 90.5547 118.212 79.5787 125.529 71.664C132.399 64.496 140.463 60.912 149.721 60.912C163.759 60.912 172.047 67.632 174.585 81.072C175.929 88.0907 175.407 96.1547 173.017 105.264C172.569 107.205 172.196 108.325 171.897 108.624H131.801C130.756 115.493 131.503 120.496 134.041 123.632C136.729 126.619 140.313 128.112 144.793 128.112Z"
    fill="#1D4CC4" />
  <path
    d="M212.949 83.76C212.053 84.5067 211.381 85.1787 210.933 85.776L206.005 120.944C207.498 122.139 208.917 123.259 210.261 124.304C211.605 125.2 213.173 125.648 214.965 125.648C220.191 125.648 224.149 123.931 226.837 120.496C229.674 116.912 231.765 111.088 233.109 103.024C234.303 93.9147 234.079 87.568 232.437 83.984C230.943 80.4 228.33 78.608 224.597 78.608C220.863 78.608 216.981 80.3253 212.949 83.76ZM197.717 30.896L218.997 27.984L212.949 71.664C214.143 70.768 215.487 69.7227 216.981 68.528C218.623 67.184 220.415 65.9893 222.357 64.944C226.687 62.256 230.794 60.912 234.677 60.912C238.559 60.912 241.919 61.7333 244.757 63.376C247.594 64.8693 249.909 67.2587 251.701 70.544C255.733 78.0107 256.778 88.24 254.837 101.232C252.746 114.971 248.49 125.424 242.069 132.592C236.095 139.461 229.077 142.896 221.013 142.896C214.293 142.896 209.066 140.656 205.333 136.176C204.437 134.981 203.615 133.861 202.869 132.816L199.733 142H182.261L197.717 30.896Z"
    fill="#1D4CC4" />
  <path
    d="M266.939 123.856C267.387 124.005 268.208 124.379 269.403 124.976C270.598 125.573 272.016 126.171 273.659 126.768C277.84 128.112 281.35 128.784 284.187 128.784C287.024 128.784 289.264 128.336 290.907 127.44C292.699 126.395 293.744 124.677 294.043 122.288C294.491 119.749 294.118 117.659 292.923 116.016C291.728 114.224 290.16 112.507 288.219 110.864C286.427 109.221 284.411 107.579 282.171 105.936C279.931 104.144 277.915 102.128 276.123 99.888C271.942 94.96 270.299 89.2107 271.195 82.64C272.091 76.0693 275.078 70.8427 280.155 66.96C285.382 62.928 292.326 60.912 300.987 60.912C307.707 60.912 314.203 61.9573 320.475 64.048L317.339 79.28C316.144 79.1307 314.054 78.608 311.067 77.712C308.23 76.816 305.168 76.368 301.883 76.368C295.611 76.368 292.102 78.4587 291.355 82.64C291.056 84.5813 291.504 86.3733 292.699 88.016C294.043 89.5093 295.686 91.0773 297.627 92.72C299.568 94.2133 301.734 95.856 304.123 97.648C306.512 99.2907 308.678 101.157 310.619 103.248C315.099 108.027 316.816 113.701 315.771 120.272C315.174 126.843 312.336 132.443 307.259 137.072C301.883 141.701 294.566 144.016 285.307 144.016C279.184 144.016 274.555 143.419 271.419 142.224C266.043 140.283 262.683 138.789 261.339 137.744L266.939 123.856Z"
    fill="#1D4CC4" />
  <path
    d="M352.8 124.976C354.293 125.723 355.861 126.096 357.504 126.096C359.146 126.096 360.64 125.872 361.984 125.424C363.328 124.827 364.672 124.155 366.016 123.408C368.106 122.213 370.122 120.421 372.064 118.032L376.32 86.448C374.528 84.208 372.661 82.2667 370.72 80.624C368.778 78.832 366.24 77.936 363.104 77.936C356.682 77.936 352.202 86 349.664 102.128C347.573 115.419 348.618 123.035 352.8 124.976ZM378.56 73.456L381.248 62.704H400.288L384.16 177.168H363.552L370.048 133.264H369.824C367.285 136.251 364.597 138.416 361.76 139.76C355.786 142.597 351.008 144.016 347.424 144.016C343.84 144.016 340.554 143.269 337.568 141.776C334.73 140.283 332.416 137.893 330.624 134.608C326.741 127.44 325.77 117.136 327.712 103.696C329.653 90.5547 333.909 80.176 340.48 72.56C346.602 65.2427 353.77 61.584 361.984 61.584C368.256 61.584 373.781 65.5413 378.56 73.456Z"
    fill="#1D4CC4" />
  <path
    d="M417.57 62.704H435.938L435.042 72.784H435.49C436.237 72.336 437.282 71.44 438.626 70.096C440.119 68.752 441.986 67.408 444.226 66.064C449.751 62.6293 455.202 60.912 460.578 60.912C468.045 60.912 472.973 63.152 475.362 67.632C477.751 72.112 478.274 79.056 476.93 88.464L469.314 142H448.93L455.426 93.616C456.173 87.9413 456.098 84.1333 455.202 82.192C454.306 80.1013 452.29 79.056 449.154 79.056C446.466 79.056 444.002 79.8773 441.762 81.52C437.581 84.8053 435.266 86.896 434.818 87.792L427.202 142H406.37L417.57 62.704Z"
    fill="#1D4CC4" />
  <defs>
    <linearGradient id="paint0_linear_136_592" x1="1115.57" y1="1368.38" x2="4391.95" y2="-251.667"
      gradientUnits="userSpaceOnUse">
      <stop stop-color="#2CBB1F" />
      <stop offset="0.3123" stop-color="#1C9011" />
      <stop offset="0.8383" stop-color="#178F0C" />
    </linearGradient>
    <linearGradient id="paint1_linear_136_592" x1="-2580.73" y1="16472.1" x2="7864.18" y2="5563.06"
      gradientUnits="userSpaceOnUse">
      <stop offset="0.3233" stop-color="#2C1EA1" />
      <stop offset="0.6302" stop-color="#FFCB00" />
      <stop offset="0.7514" stop-color="#FFD532" />
      <stop offset="1" stop-color="#35CC27" />
    </linearGradient>
    <linearGradient id="paint2_linear_136_592" x1="-349.296" y1="12435.1" x2="10410.8" y2="6052.28"
      gradientUnits="userSpaceOnUse">
      <stop offset="0.14" stop-color="#302681" />
      <stop offset="0.6" stop-color="#FFCB00" />
      <stop offset="1" stop-color="#34F123" />
    </linearGradient>
    <linearGradient id="paint3_linear_136_592" x1="824.87" y1="5353.36" x2="5769" y2="3653.16"
      gradientUnits="userSpaceOnUse">
      <stop stop-color="#282662" />
      <stop offset="0.0954839" stop-color="#302681" />
      <stop offset="0.7882" stop-color="#1E108E" />
      <stop offset="0.9487" stop-color="#EF6C00" />
    </linearGradient>
    <linearGradient id="paint4_linear_136_592" x1="-1980.69" y1="16428.5" x2="2274.51" y2="90.6904"
      gradientUnits="userSpaceOnUse">
      <stop offset="0.3233" stop-color="#262F81" />
      <stop offset="0.6302" stop-color="#598126" />
      <stop offset="0.7514" stop-color="#FFCB00" />
      <stop offset="1" stop-color="#28CC19" />
    </linearGradient>
    <linearGradient id="paint5_linear_136_592" x1="450.949" y1="12234" x2="8833.87" y2="-1917.25"
      gradientUnits="userSpaceOnUse">
      <stop offset="0.31" stop-color="#302681" />
      <stop offset="0.395" stop-color="#209E69" />
      <stop offset="0.64" stop-color="#F4C200" />
      <stop offset="0.995" stop-color="#3CF32B" />
    </linearGradient>
    <linearGradient id="paint6_linear_136_592" x1="630.397" y1="5480.43" x2="3217.63" y2="-4241.67"
      gradientUnits="userSpaceOnUse">
      <stop stop-color="#302681" />
      <stop offset="0.0954839" stop-color="#291E81" />
      <stop offset="0.7882" stop-color="#2513B5" />
      <stop offset="0.9487" stop-color="#FFCB00" />
    </linearGradient>
    <linearGradient id="paint7_linear_136_592" x1="511.597" y1="10.5112" x2="511.597" y2="176.5"
      gradientUnits="userSpaceOnUse">
      <stop stop-color="#2BB91F" />
      <stop offset="0.649013" stop-color="#2C2184" />
    </linearGradient>
  </defs>
</svg>