<svg width="64" height="69" viewBox="0 0 64 69" fill="none" xmlns="http://www.w3.org/2000/svg">
  <g clip-path="url(#clip0_136_612)">
    <path
      d="M21.3226 2.12797L21.3065 4.26131L19.1786 4.27739L17.0452 4.28811V30.0168L14.9441 30.006L12.8375 29.9899L12.8214 27.8566L12.8107 25.7286H4.34171V30.0168H12.8107V34.3049H17.0452V38.4322H21.3333V4.28811H29.8559V30.0168H34.1441V21.4405H42.6667V30.0168H46.9548V21.4405H51.1357L51.125 19.2804L51.1089 17.1256H34.1441V4.28811L32.0161 4.27739L29.8827 4.26131L29.8667 2.12797L29.8559 0H21.3333L21.3226 2.12797Z"
      fill="black" />
    <path
      d="M51.1893 30.0168H55.4774V25.7286H59.7119V47.062H64V25.7286L61.9364 25.7233C60.8 25.7179 59.8405 25.7126 59.8084 25.7072C59.7548 25.7018 59.7333 25.2302 59.7226 23.5685L59.7119 21.4405H51.1893V30.0168Z"
      fill="black" />
    <path
      d="M0 38.593H4.28811V40.7209L4.28275 42.8543L6.40536 42.8704L8.52261 42.8811V51.4573H12.8107V55.7454H17.0452V60.0335H21.3333V68.6097H42.6131V64.3216H25.6214L25.6107 62.1776L25.5946 60.0281L23.4667 60.0335H21.3333V55.7454L19.2054 55.7347L17.072 55.7186L17.0559 53.5853L17.0452 51.4573H12.8107V42.8811H8.52261V38.5662L6.40536 38.5822L4.28811 38.593V30.0168H0V38.593Z"
      fill="black" />
    <path d="M29.8559 55.7454H34.1441V38.593H29.8559V55.7454Z" fill="black" />
    <path d="M38.3786 55.7454H42.6667V38.593H38.3786V55.7454Z" fill="black" />
    <path
      d="M46.928 55.7186L49.0613 55.7347L51.1893 55.7454V64.3216H46.9548V60.0335H42.6667V64.3216H46.9548V68.6097H55.4774V55.7454H59.7119V47.1692H55.4774V55.7454H51.1893V38.593H46.9012L46.928 55.7186Z"
      fill="black" />
    <path fill-rule="evenodd" clip-rule="evenodd"
      d="M25.6107 62.1776L25.6214 64.3216H42.6131L42.6667 64.3216V60.0335H46.9548V64.3216H51.1893V55.7454L49.0613 55.7347L46.928 55.7186L46.9012 38.593H51.1893V55.7454H55.4774V47.1692H59.7119V47.062V25.7286H55.4774V30.0168H51.1893V21.4405H51.1357H46.9548V30.0168H42.6667V21.4405H34.1441V30.0168H29.8559V4.28811H21.3333V38.4322H17.0452V34.3049H12.8107V30.0168H4.34171H4.28811V38.593L6.40536 38.5822L8.52261 38.5662V42.8811H12.8107V51.4573H17.0452L17.0559 53.5853L17.072 55.7186L19.2054 55.7347L21.3333 55.7454V60.0335H23.4667L25.5946 60.0281L25.6107 62.1776ZM29.8559 55.7454V38.593H34.1441V55.7454H29.8559ZM38.3786 55.7454V38.593H42.6667V55.7454H38.3786Z"
      fill="#F9F9F9" />
  </g>
  <defs>
    <clipPath id="clip0_136_612">
      <rect width="64" height="68.6097" fill="white" />
    </clipPath>
  </defs>
</svg>