<svg width="222" height="59" viewBox="0 0 222 59" fill="none" xmlns="http://www.w3.org/2000/svg">
  <path d="M176.201 0H212C217.523 0 222 4.47715 222 10V24.9857C222 30.5085 217.523 34.9857 212 34.9857H176.201V0Z"
    fill="#006FE6" />
  <path
    d="M176.701 0.5H212C217.247 0.5 221.5 4.75329 221.5 10V24.9857C221.5 30.2324 217.247 34.4857 212 34.4857H176.701V0.5Z"
    stroke="white" stroke-opacity="0.25" />
  <path d="M194.012 17.1748L199.101 22.2636L204.189 17.1748H194.012Z" fill="white" />
  <path d="M0 10C0 4.47715 4.47715 0 10 0H176.837V34.9857H9.99998C4.47713 34.9857 0 30.5085 0 24.9857V10Z"
    fill="#006FE6" />
  <path d="M10 0.5H176.337V34.4857H9.99998C4.75328 34.4857 0.5 30.2324 0.5 24.9857V10C0.5 4.7533 4.75329 0.5 10 0.5Z"
    stroke="white" stroke-opacity="0.25" />
  <path
    d="M29.1193 23.6874C28.2633 24.1396 27.1974 24.3658 25.9214 24.3658C24.274 24.3658 22.955 23.8355 21.9644 22.7749C20.9738 21.7143 20.4785 20.3226 20.4785 18.5998C20.4785 16.7478 21.0357 15.2512 22.1501 14.1098C23.2646 12.9685 24.6778 12.3978 26.3898 12.3978C27.4881 12.3978 28.3979 12.5566 29.1193 12.8743V14.3198C28.2902 13.8568 27.375 13.6253 26.3737 13.6253C25.0439 13.6253 23.9645 14.0695 23.1354 14.9578C22.3117 15.8461 21.8998 17.0332 21.8998 18.5191C21.8998 19.9296 22.2847 21.0548 23.0546 21.8946C23.8299 22.7291 24.8447 23.1464 26.0991 23.1464C27.262 23.1464 28.2687 22.8879 29.1193 22.3711V23.6874Z"
    fill="white" />
  <path
    d="M35.6121 17.2431C35.3806 17.0655 35.0468 16.9766 34.6107 16.9766C34.0454 16.9766 33.5716 17.2431 33.1894 17.7761C32.8125 18.3091 32.6241 19.0359 32.6241 19.9565V24.1719H31.2997V15.9026H32.6241V17.6065H32.6564C32.8448 17.0251 33.1329 16.5729 33.5205 16.2499C33.9081 15.9214 34.3415 15.7572 34.8207 15.7572C35.1652 15.7572 35.429 15.7949 35.6121 15.8703V17.2431Z"
    fill="white" />
  <path
    d="M43.4695 20.3684H37.6309C37.6525 21.289 37.9001 21.9996 38.3739 22.5003C38.8477 23.001 39.4991 23.2513 40.3282 23.2513C41.2595 23.2513 42.1155 22.9445 42.8962 22.3307V23.5744C42.1694 24.102 41.2084 24.3658 40.0132 24.3658C38.845 24.3658 37.927 23.9916 37.2595 23.2433C36.5919 22.4895 36.2581 21.4316 36.2581 20.0696C36.2581 18.7829 36.6215 17.7357 37.3483 16.9282C38.0805 16.1153 38.9876 15.7088 40.0697 15.7088C41.1519 15.7088 41.989 16.0587 42.5812 16.7586C43.1734 17.4585 43.4695 18.4302 43.4695 19.6739V20.3684ZM42.1129 19.2459C42.1075 18.4814 41.9217 17.8865 41.5556 17.4612C41.1949 17.0359 40.6916 16.8232 40.0455 16.8232C39.421 16.8232 38.8907 17.0466 38.4546 17.4935C38.0186 17.9403 37.7494 18.5245 37.6471 19.2459H42.1129Z"
    fill="white" />
  <path
    d="M51.3997 24.1719H50.0753V22.8799H50.043C49.467 23.8705 48.619 24.3658 47.4992 24.3658C46.6755 24.3658 46.0295 24.1477 45.5611 23.7116C45.0981 23.2756 44.8666 22.6968 44.8666 21.9754C44.8666 20.4303 45.7765 19.5312 47.5961 19.2782L50.0753 18.9309C50.0753 17.5258 49.5073 16.8232 48.3714 16.8232C47.3754 16.8232 46.4763 17.1624 45.6742 17.8407V16.484C46.4871 15.9672 47.4239 15.7088 48.4844 15.7088C50.428 15.7088 51.3997 16.7371 51.3997 18.7936V24.1719ZM50.0753 19.9888L48.0807 20.2634C47.4669 20.3495 47.0039 20.503 46.6917 20.7237C46.3794 20.939 46.2233 21.324 46.2233 21.8785C46.2233 22.2823 46.366 22.6134 46.6513 22.8718C46.942 23.1248 47.327 23.2513 47.8061 23.2513C48.4629 23.2513 49.004 23.0225 49.4293 22.5649C49.86 22.1019 50.0753 21.5178 50.0753 20.8125V19.9888Z"
    fill="white" />
  <path
    d="M57.7309 24.0912C57.4187 24.2635 57.0068 24.3496 56.4954 24.3496C55.0472 24.3496 54.3231 23.5421 54.3231 21.9269V17.0332H52.9018V15.9026H54.3231V13.8837L55.6474 13.4557V15.9026H57.7309V17.0332H55.6474V21.6928C55.6474 22.2473 55.7417 22.643 55.9301 22.8799C56.1185 23.1167 56.4308 23.2352 56.8668 23.2352C57.2006 23.2352 57.4887 23.1437 57.7309 22.9606V24.0912Z"
    fill="white" />
  <path
    d="M66.0164 20.3684H60.1778C60.1993 21.289 60.447 21.9996 60.9208 22.5003C61.3945 23.001 62.046 23.2513 62.875 23.2513C63.8064 23.2513 64.6624 22.9445 65.4431 22.3307V23.5744C64.7163 24.102 63.7553 24.3658 62.5601 24.3658C61.3918 24.3658 60.4739 23.9916 59.8063 23.2433C59.1388 22.4895 58.805 21.4316 58.805 20.0696C58.805 18.7829 59.1684 17.7357 59.8952 16.9282C60.6274 16.1153 61.5345 15.7088 62.6166 15.7088C63.6987 15.7088 64.5359 16.0587 65.1281 16.7586C65.7203 17.4585 66.0164 18.4302 66.0164 19.6739V20.3684ZM64.6597 19.2459C64.6543 18.4814 64.4686 17.8865 64.1025 17.4612C63.7418 17.0359 63.2384 16.8232 62.5924 16.8232C61.9679 16.8232 61.4376 17.0466 61.0015 17.4935C60.5654 17.9403 60.2963 18.5245 60.194 19.2459H64.6597Z"
    fill="white" />
  <path
    d="M73.9224 22.9768H73.8901V27.9755H72.5657V15.9026H73.8901V17.3562H73.9224C74.5738 16.2579 75.5267 15.7088 76.7811 15.7088C77.8471 15.7088 78.6788 16.0803 79.2764 16.8232C79.874 17.5608 80.1728 18.5514 80.1728 19.795C80.1728 21.1786 79.8363 22.2877 79.1634 23.1221C78.4904 23.9512 77.5698 24.3658 76.4015 24.3658C75.3302 24.3658 74.5038 23.9028 73.9224 22.9768ZM73.8901 19.6416V20.7964C73.8901 21.4801 74.1108 22.0615 74.5523 22.5407C74.9991 23.0145 75.5644 23.2513 76.2481 23.2513C77.0503 23.2513 77.6775 22.9445 78.1297 22.3307C78.5873 21.717 78.8161 20.8637 78.8161 19.7708C78.8161 18.8502 78.6035 18.1288 78.1782 17.6065C77.7529 17.0843 77.1768 16.8232 76.45 16.8232C75.6801 16.8232 75.061 17.0924 74.5926 17.6308C74.1243 18.1638 73.8901 18.834 73.8901 19.6416Z"
    fill="white" />
  <path
    d="M88.9751 24.1719H87.6508V22.8637H87.6185C87.0693 23.8651 86.2187 24.3658 85.0666 24.3658C83.0962 24.3658 82.1109 23.1921 82.1109 20.8448V15.9026H83.4273V20.6349C83.4273 22.3792 84.0948 23.2513 85.43 23.2513C86.076 23.2513 86.6063 23.0145 87.0209 22.5407C87.4408 22.0615 87.6508 21.437 87.6508 20.6672V15.9026H88.9751V24.1719Z"
    fill="white" />
  <path d="M92.9806 24.1719H91.6562V11.9294H92.9806V24.1719Z" fill="white" />
  <path d="M96.9861 24.1719H95.6617V11.9294H96.9861V24.1719Z" fill="white" />
  <path
    d="M108.518 17.2431C108.286 17.0655 107.953 16.9766 107.517 16.9766C106.951 16.9766 106.478 17.2431 106.095 17.7761C105.718 18.3091 105.53 19.0359 105.53 19.9565V24.1719H104.206V15.9026H105.53V17.6065H105.562C105.751 17.0251 106.039 16.5729 106.426 16.2499C106.814 15.9214 107.247 15.7572 107.727 15.7572C108.071 15.7572 108.335 15.7949 108.518 15.8703V17.2431Z"
    fill="white" />
  <path
    d="M116.375 20.3684H110.537C110.558 21.289 110.806 21.9996 111.28 22.5003C111.754 23.001 112.405 23.2513 113.234 23.2513C114.165 23.2513 115.021 22.9445 115.802 22.3307V23.5744C115.075 24.102 114.114 24.3658 112.919 24.3658C111.751 24.3658 110.833 23.9916 110.165 23.2433C109.498 22.4895 109.164 21.4316 109.164 20.0696C109.164 18.7829 109.527 17.7357 110.254 16.9282C110.986 16.1153 111.893 15.7088 112.976 15.7088C114.058 15.7088 114.895 16.0587 115.487 16.7586C116.079 17.4585 116.375 18.4302 116.375 19.6739V20.3684ZM115.019 19.2459C115.013 18.4814 114.828 17.8865 114.462 17.4612C114.101 17.0359 113.597 16.8232 112.951 16.8232C112.327 16.8232 111.797 17.0466 111.361 17.4935C110.924 17.9403 110.655 18.5245 110.553 19.2459H115.019Z"
    fill="white" />
  <path
    d="M125.444 27.9755H124.12V22.7507H124.088C123.511 23.8274 122.569 24.3658 121.261 24.3658C120.222 24.3658 119.388 23.997 118.758 23.2594C118.133 22.5165 117.821 21.507 117.821 20.2311C117.821 18.8582 118.165 17.7627 118.855 16.9443C119.544 16.1206 120.47 15.7088 121.633 15.7088C122.763 15.7088 123.581 16.1556 124.088 17.0493H124.12V15.9026H125.444V27.9755ZM124.12 20.4491V19.2459C124.12 18.5675 123.896 17.9942 123.45 17.5258C123.008 17.0574 122.446 16.8232 121.762 16.8232C120.965 16.8232 120.335 17.1193 119.872 17.7115C119.409 18.2983 119.178 19.1274 119.178 20.1988C119.178 21.1517 119.401 21.9 119.848 22.4438C120.295 22.9821 120.871 23.2513 121.576 23.2513C122.351 23.2513 122.968 22.9875 123.425 22.4599C123.888 21.9269 124.12 21.2567 124.12 20.4491Z"
    fill="white" />
  <path
    d="M134.812 24.1719H133.487V22.8637H133.455C132.906 23.8651 132.055 24.3658 130.903 24.3658C128.933 24.3658 127.948 23.1921 127.948 20.8448V15.9026H129.264V20.6349C129.264 22.3792 129.932 23.2513 131.267 23.2513C131.913 23.2513 132.443 23.0145 132.858 22.5407C133.277 22.0615 133.487 21.437 133.487 20.6672V15.9026H134.812V24.1719Z"
    fill="white" />
  <path
    d="M144.139 20.3684H138.3C138.322 21.289 138.57 21.9996 139.043 22.5003C139.517 23.001 140.169 23.2513 140.998 23.2513C141.929 23.2513 142.785 22.9445 143.566 22.3307V23.5744C142.839 24.102 141.878 24.3658 140.683 24.3658C139.514 24.3658 138.597 23.9916 137.929 23.2433C137.261 22.4895 136.928 21.4316 136.928 20.0696C136.928 18.7829 137.291 17.7357 138.018 16.9282C138.75 16.1153 139.657 15.7088 140.739 15.7088C141.821 15.7088 142.659 16.0587 143.251 16.7586C143.843 17.4585 144.139 18.4302 144.139 19.6739V20.3684ZM142.782 19.2459C142.777 18.4814 142.591 17.8865 142.225 17.4612C141.864 17.0359 141.361 16.8232 140.715 16.8232C140.091 16.8232 139.56 17.0466 139.124 17.4935C138.688 17.9403 138.419 18.5245 138.317 19.2459H142.782Z"
    fill="white" />
  <path
    d="M145.649 23.8731V22.4519C146.371 22.9848 147.165 23.2513 148.031 23.2513C149.194 23.2513 149.776 22.8637 149.776 22.0885C149.776 21.8677 149.725 21.682 149.622 21.5312C149.525 21.3751 149.391 21.2378 149.219 21.1194C149.052 21.001 148.852 20.896 148.621 20.8044C148.395 20.7075 148.15 20.6079 147.886 20.5057C147.52 20.3603 147.197 20.2149 146.917 20.0696C146.642 19.9188 146.411 19.7519 146.223 19.5689C146.04 19.3805 145.9 19.1678 145.803 18.9309C145.711 18.694 145.665 18.4168 145.665 18.0991C145.665 17.7115 145.754 17.3697 145.932 17.0736C146.11 16.7721 146.346 16.5217 146.642 16.3225C146.939 16.118 147.275 15.9645 147.652 15.8622C148.034 15.7599 148.427 15.7088 148.831 15.7088C149.547 15.7088 150.188 15.8326 150.753 16.0803V17.4208C150.145 17.0224 149.445 16.8232 148.653 16.8232C148.406 16.8232 148.182 16.8528 147.983 16.912C147.784 16.9659 147.612 17.0439 147.466 17.1462C147.326 17.2485 147.216 17.3723 147.135 17.5177C147.06 17.6577 147.022 17.8138 147.022 17.9861C147.022 18.2014 147.06 18.3818 147.135 18.5271C147.216 18.6725 147.332 18.8017 147.482 18.9148C147.633 19.0278 147.816 19.1301 148.031 19.2216C148.247 19.3132 148.492 19.4128 148.766 19.5204C149.132 19.6604 149.461 19.8058 149.752 19.9565C150.042 20.1019 150.29 20.2688 150.495 20.4572C150.699 20.6402 150.855 20.8529 150.963 21.0952C151.076 21.3374 151.132 21.6255 151.132 21.9592C151.132 22.3684 151.041 22.7237 150.858 23.0252C150.68 23.3267 150.441 23.577 150.139 23.7762C149.838 23.9754 149.49 24.1235 149.097 24.2204C148.704 24.3173 148.293 24.3658 147.862 24.3658C147.011 24.3658 146.274 24.2016 145.649 23.8731Z"
    fill="white" />
  <path
    d="M157.011 24.0912C156.699 24.2635 156.287 24.3496 155.776 24.3496C154.328 24.3496 153.604 23.5421 153.604 21.9269V17.0332H152.182V15.9026H153.604V13.8837L154.928 13.4557V15.9026H157.011V17.0332H154.928V21.6928C154.928 22.2473 155.022 22.643 155.211 22.8799C155.399 23.1167 155.711 23.2352 156.147 23.2352C156.481 23.2352 156.769 23.1437 157.011 22.9606V24.0912Z"
    fill="white" />
  <path
    d="M163.683 16.6201L163.673 17.9771L162.32 17.9873L160.963 17.9942V34.3602L159.626 34.3534L158.286 34.3432L158.276 32.9862L158.269 31.6326H152.882V34.3602H158.269V37.0879H160.963V39.7133H163.69V17.9942H169.112V34.3602H171.839V28.9049H177.261V34.3602H179.988V28.9049H182.648L182.641 27.5308L182.631 26.1601H171.839V17.9942L170.486 17.9873L169.129 17.9771L169.118 16.6201L169.112 15.2665H163.69L163.683 16.6201Z"
    fill="black" />
  <path
    d="M182.682 34.3602H185.409V31.6326H188.103V45.2028H190.831V31.6326L189.518 31.6291C188.795 31.6257 188.185 31.6223 188.164 31.6189C188.13 31.6155 188.117 31.3155 188.11 30.2585L188.103 28.9049H182.682V34.3602Z"
    fill="black" />
  <path
    d="M150.12 39.8156H152.848V41.1692L152.844 42.5262L154.195 42.5364L155.541 42.5433V47.9986H158.269V50.7263H160.963V53.454H163.69V58.9093H177.226V56.1817H166.418L166.411 54.8178L166.401 53.4506L165.047 53.454H163.69V50.7263L162.337 50.7195L160.98 50.7093L160.969 49.3522L160.963 47.9986H158.269V42.5433H155.541V39.7985L154.195 39.8088L152.848 39.8156V34.3602H150.12V39.8156Z"
    fill="black" />
  <path d="M169.112 50.7263H171.839V39.8156H169.112V50.7263Z" fill="black" />
  <path d="M174.533 50.7263H177.261V39.8156H174.533V50.7263Z" fill="black" />
  <path
    d="M179.971 50.7093L181.328 50.7195L182.682 50.7263V56.1817H179.988V53.454H177.261V56.1817H179.988V58.9093H185.409V50.7263H188.103V45.2709H185.409V50.7263H182.682V39.8156H179.954L179.971 50.7093Z"
    fill="black" />
  <path fill-rule="evenodd" clip-rule="evenodd"
    d="M166.411 54.8178L166.418 56.1817H177.226L177.261 56.1817V53.454H179.988V56.1817H182.682V50.7263L181.328 50.7195L179.971 50.7093L179.954 39.8156H182.682V50.7263H185.409V45.2709H188.103V45.2028V31.6326H185.409V34.3602H182.682V28.9049H182.648H179.988V34.3602H177.261V28.9049H171.839V34.3602H169.112V17.9942H163.69V39.7133H160.963V37.0879H158.269V34.3602H152.882H152.848V39.8156L154.195 39.8088L155.541 39.7985V42.5433H158.269V47.9986H160.963L160.969 49.3522L160.98 50.7093L162.337 50.7195L163.69 50.7263V53.454H165.047L166.401 53.4506L166.411 54.8178ZM169.112 50.7263V39.8156H171.839V50.7263H169.112ZM174.533 50.7263V39.8156H177.261V50.7263H174.533Z"
    fill="#F9F9F9" />
</svg>